<?xml version="1.0" encoding="utf-8"?><!-- Uploaded to: SVG Repo, www.svgrepo.com, Generator: SVG Repo Mixer Tools -->
<svg width="800px" height="800px" viewBox="2 0 24 22" fill="none" xmlns="http://www.w3.org/2000/svg">
    <path fill-rule="evenodd" clip-rule="evenodd"
          d="M12 4C7.58172 4 4 7.58172 4 12C4 16.4183 7.58172 20 12 20C16.4183 20 20 16.4183 20 12C20 7.58172 16.4183 4 12 4ZM2 12C2 6.47715 6.47715 2 12 2C17.5228 2 22 6.47715 22 12C22 17.5228 17.5228 22 12 22C6.47715 22 2 17.5228 2 12ZM11.8284 6.75736C12.3807 6.75736 12.8284 7.20507 12.8284 7.75736V12.7245L16.3553 14.0653C16.8716 14.2615 17.131 14.8391 16.9347 15.3553C16.7385 15.8716 16.1609 16.131 15.6447 15.9347L11.4731 14.349C11.085 14.2014 10.8284 13.8294 10.8284 13.4142V7.75736C10.8284 7.20507 11.2761 6.75736 11.8284 6.75736Z"
          fill="#0F1729"/>
</svg>
