<svg width="21" height="30" viewBox="0 0 21 30" fill="none" xmlns="http://www.w3.org/2000/svg">
<mask id="path-1-inside-1_4976_50368" fill="white">
<path fill-rule="evenodd" clip-rule="evenodd" d="M4.59057 28L13.518 28C16.5456 28 19 25.5456 19 22.518L19 11.25H9.75C9.75 6.94545 12.5395 3.29242 16.4094 2L7.48205 2C4.4544 2 2 4.4544 2 7.48204L2 18.75L11.25 18.75C11.25 23.0546 8.46049 26.7076 4.59057 28ZM13.518 30C17.6502 30 21 26.6502 21 22.518L21 2V1.90735e-06L19 0H7.48205C3.34983 0 2.11304e-06 3.34982 0 7.48204V28V30H2L13.518 30Z"/>
</mask>
<path fill-rule="evenodd" clip-rule="evenodd" d="M4.59057 28L13.518 28C16.5456 28 19 25.5456 19 22.518L19 11.25H9.75C9.75 6.94545 12.5395 3.29242 16.4094 2L7.48205 2C4.4544 2 2 4.4544 2 7.48204L2 18.75L11.25 18.75C11.25 23.0546 8.46049 26.7076 4.59057 28ZM13.518 30C17.6502 30 21 26.6502 21 22.518L21 2V1.90735e-06L19 0H7.48205C3.34983 0 2.11304e-06 3.34982 0 7.48204V28V30H2L13.518 30Z" fill="white"/>
<path d="M13.518 28V29V28ZM4.59057 28L4.2738 27.0515L4.59057 29V28ZM19 22.518H18H19ZM19 11.25H20V10.25H19V11.25ZM9.75 11.25H8.75V12.25H9.75V11.25ZM16.4094 2L16.7262 2.9485L16.4094 1V2ZM7.48205 2V1V2ZM2 7.48204H1H2ZM2 18.75H1L1 19.75H2L2 18.75ZM11.25 18.75H12.25V17.75H11.25V18.75ZM21 22.518H20H21ZM13.518 30V31V30ZM21 2H22H21ZM21 1.90735e-06H22V-0.999997L21 -0.999998L21 1.90735e-06ZM19 0L19 -1H19V0ZM0 7.48204L-1 7.48204V7.48204H0ZM0 30H-1V31H0V30ZM2 30L2 29H2V30ZM13.518 27L4.59057 27V29L13.518 29V27ZM18 22.518C18 24.9933 15.9933 27 13.518 27V29C17.0979 29 20 26.0979 20 22.518H18ZM18 11.25L18 22.518H20L20 11.25H18ZM9.75 12.25H19V10.25H9.75V12.25ZM16.0927 1.0515C11.827 2.47609 8.75 6.50241 8.75 11.25H10.75C10.75 7.38848 13.2521 4.10875 16.7262 2.9485L16.0927 1.0515ZM7.48205 3L16.4094 3V1L7.48205 1V3ZM3 7.48204C3 5.00668 5.00668 3 7.48205 3V1C3.90211 1 1 3.90211 1 7.48204H3ZM3 18.75L3 7.48204H1L1 18.75H3ZM2 19.75L11.25 19.75V17.75L2 17.75L2 19.75ZM10.25 18.75C10.25 22.6115 7.74794 25.8913 4.2738 27.0515L4.90733 28.9485C9.17304 27.5239 12.25 23.4976 12.25 18.75H10.25ZM20 22.518C20 26.0979 17.0979 29 13.518 29V31C18.2025 31 22 27.2025 22 22.518H20ZM20 2L20 22.518H22L22 2H20ZM20 1.90735e-06V2H22V1.90735e-06H20ZM19 1L21 1L21 -0.999998L19 -1L19 1ZM7.48205 1H19V-1H7.48205V1ZM1 7.48204C1 3.90211 3.90211 1 7.48205 1V-1C2.79754 -1 -0.999998 2.79754 -1 7.48204L1 7.48204ZM1 28V7.48204H-1V28H1ZM1 30V28H-1V30H1ZM2 29H0V31H2V29ZM13.518 29L2 29L2 31L13.518 31V29Z" fill="white" mask="url(#path-1-inside-1_4976_50368)"/>
</svg>
