<?xml version="1.0" encoding="utf-8"?>
<svg viewBox="0 0 256 256" width="256" height="256" fill="#f40101" xmlns="http://www.w3.org/2000/svg">
  <rect width="256" height="256" fill="none"/>
  <polyline points="152 32 152 88 208 88" fill="none" stroke="#f40101" stroke-linecap="round" stroke-linejoin="round" stroke-width="16"/>
  <path d="M176,224h24a8,8,0,0,0,8-8V88L152,32H56a8,8,0,0,0-8,8v88" fill="none" stroke="#f40101" stroke-linecap="round" stroke-linejoin="round" stroke-width="16"/>
  <path fill-rule="evenodd" clip-rule="evenodd" d="M 33.737 165.681 L 71.394 131.67 L 138.303 131.67 L 175.96 165.681 L 105.051 232.543 L 33.74 165.681 L 33.737 165.681 Z M 75.599 142.105 L 96.033 142.105 L 139.705 185.197 L 104.849 218.051 L 49.36 165.875 L 75.603 142.105 L 75.599 142.105 Z" fill="#f40101" style=""/>
</svg>