<svg width="26" height="30" viewBox="0 0 26 30" fill="none" xmlns="http://www.w3.org/2000/svg">
<path fill-rule="evenodd" clip-rule="evenodd" d="M12.9904 0L25.0271 6.94942L13.0836 13.8451L1.0468 6.89563L12.9904 0ZM14.2182 15.4994L25.9808 8.70825V22.5L14.2182 29.2911V15.4994ZM12.9904 30L12.99 29.9998H12.9908L12.9904 30ZM12.2182 15.6548V29.5542L0 22.5V8.60067L12.2182 15.6548ZM0.139544 7.41943L0 7.66113V7.5L0.139544 7.41943ZM14.3879 4.63678L13.125 0.75L11.8621 4.63678H7.77531L11.0816 7.03894L9.81871 10.9257L13.125 8.52356L16.4313 10.9257L15.1684 7.03894L18.4747 4.63678H14.3879Z" fill="white"/>
</svg>
