<svg width="17" height="17" viewBox="0 0 17 17" fill="none" xmlns="http://www.w3.org/2000/svg">
<path d="M12.5 8.5C12.5 8.66576 12.4342 8.82473 12.3169 8.94194C12.1997 9.05915 12.0408 9.125 11.875 9.125H5.625C5.45924 9.125 5.30027 9.05915 5.18306 8.94194C5.06585 8.82473 5 8.66576 5 8.5C5 8.33424 5.06585 8.17527 5.18306 8.05806C5.30027 7.94085 5.45924 7.875 5.625 7.875H11.875C12.0408 7.875 12.1997 7.94085 12.3169 8.05806C12.4342 8.17527 12.5 8.33424 12.5 8.5ZM16.875 8.5C16.875 10.107 16.3985 11.6779 15.5057 13.014C14.6129 14.3502 13.344 15.3916 11.8593 16.0065C10.3747 16.6215 8.74099 16.7824 7.1649 16.4689C5.5888 16.1554 4.14106 15.3815 3.00476 14.2452C1.86846 13.1089 1.09463 11.6612 0.781123 10.0851C0.467618 8.50901 0.62852 6.87535 1.24348 5.3907C1.85844 3.90605 2.89985 2.6371 4.236 1.74431C5.57214 0.851523 7.14303 0.375 8.75 0.375C10.9042 0.377275 12.9695 1.23403 14.4927 2.75727C16.016 4.28051 16.8727 6.34581 16.875 8.5ZM15.625 8.5C15.625 7.14025 15.2218 5.81104 14.4664 4.68045C13.7109 3.54987 12.6372 2.66868 11.381 2.14833C10.1247 1.62798 8.74238 1.49183 7.40876 1.7571C6.07514 2.02237 4.85013 2.67716 3.88864 3.63864C2.92716 4.60013 2.27238 5.82513 2.0071 7.15875C1.74183 8.49237 1.87798 9.87471 2.39833 11.1309C2.91868 12.3872 3.79987 13.4609 4.93046 14.2164C6.06105 14.9718 7.39026 15.375 8.75 15.375C10.5727 15.3729 12.3202 14.6479 13.6091 13.3591C14.8979 12.0702 15.6229 10.3227 15.625 8.5Z" fill="#242424"/>
</svg>
