<svg width="134" height="50" viewBox="0 0 134 50" fill="none" xmlns="http://www.w3.org/2000/svg">
<g clip-path="url(#clip0_10644_13881)">
<path fill-rule="evenodd" clip-rule="evenodd" d="M17.4725 5L12.7859 7.70583L25.908 15.101L26.0159 9.87619L17.4725 5ZM0.124042 20.517V15.1053L8.71857 10.1447L13.242 12.8505L0.124042 20.517ZM34.5987 29.6707V35.0824L26.1041 40.0431L21.6332 37.3373L34.5987 29.6707ZM21.7623 42.3548L17.0404 44.9986L8.56211 40.01L8.73896 34.7872L21.7623 42.3548ZM0.0118883 34.8243L4.7134 37.5387L4.61277 22.3313L0 24.892L0.0118883 34.8243ZM30.023 12.4342L34.7245 15.1486L34.7364 25.0809L30.1236 27.6416L30.023 12.4342ZM17.3618 15.7896L9.96389 20.1368L17.2855 24.3315L24.6072 20.1368L17.3618 15.7896ZM18.5424 26.5446L25.9403 22.1974V30.8156L18.5424 35.0103V26.5446ZM8.56217 22.2801L8.69772 30.8597L16.0633 35.0328L16.0605 26.5284L8.56217 22.2801Z" fill="#F5274E"/>
<path d="M51.7304 34.9711C50.2028 34.9711 48.9886 34.643 48.0877 33.987C47.1868 33.3309 46.7363 32.3661 46.7363 31.0926C46.7363 29.9349 47.1574 29.0183 47.9995 28.343C48.8417 27.6676 50.0461 27.2431 51.6129 27.0695L56.7539 26.4327V25.7091C56.7539 24.5514 56.4797 23.7699 55.9313 23.3647C55.4026 22.9595 54.5702 22.7569 53.4343 22.7569C52.318 22.7569 51.5052 22.9595 50.996 23.3647C50.4868 23.7699 50.2322 24.5031 50.2322 25.5644V25.8249H47.1476V25.5355C47.1476 23.9146 47.7351 22.5929 48.9102 21.5702C50.0853 20.5282 51.6325 20.0072 53.5518 20.0072C55.8432 20.0072 57.5275 20.7212 58.6047 22.1491C59.8973 20.7212 61.6599 20.0072 63.8925 20.0072C65.8706 20.0072 67.4667 20.5668 68.681 21.686C69.8953 22.8051 70.5024 24.3391 70.5024 26.288C70.5024 27.0791 70.4534 27.7352 70.3555 28.2562H59.7504C59.7895 29.6261 60.1225 30.6295 60.7492 31.2663C61.3955 31.8837 62.4433 32.1925 63.8925 32.1925C66.1448 32.1925 67.2709 31.4882 67.2709 30.0796V29.848H70.3849V30.1085C70.3849 31.575 69.7875 32.7521 68.5929 33.6397C67.3982 34.5273 65.8216 34.9711 63.8632 34.9711C60.9646 34.9711 58.9376 33.9387 57.7821 31.8741C57.2337 32.8775 56.421 33.6493 55.3438 34.1896C54.2666 34.7106 53.0622 34.9711 51.7304 34.9711ZM63.7456 22.6411C62.4139 22.6411 61.4444 22.9402 60.8373 23.5384C60.2302 24.1172 59.8777 24.9855 59.7797 26.1433H67.4765C67.5353 24.9469 67.2415 24.069 66.5952 23.5094C65.9685 22.9305 65.0187 22.6411 63.7456 22.6411ZM49.8209 30.8321C49.8209 31.4303 50.0168 31.8644 50.4085 32.1346C50.8197 32.3854 51.4856 32.5109 52.4061 32.5109C53.6595 32.5109 54.7073 32.2118 55.5494 31.6136C56.3916 30.9961 56.8127 29.9831 56.8127 28.5745L52.083 29.1534C51.2408 29.2499 50.6533 29.4235 50.3203 29.6744C49.9874 29.9252 49.8209 30.3111 49.8209 30.8321Z" fill="#242424"/>
<path d="M80.6354 34.9711C77.8935 34.9711 75.8469 34.4115 74.4956 33.2923C73.1638 32.1539 72.4979 30.6102 72.4979 28.6614V28.1693H75.6119V28.4877C75.6119 29.7612 75.9742 30.6874 76.6989 31.2663C77.4235 31.8259 78.7748 32.1056 80.7529 32.1056C82.1826 32.1056 83.201 31.903 83.8081 31.4978C84.4152 31.0926 84.7188 30.4366 84.7188 29.5297C84.7188 28.6228 84.4838 27.9667 84.0138 27.5615C83.5633 27.1563 82.5939 26.809 81.1054 26.5195L77.7564 25.8538C74.29 25.1978 72.5567 23.4226 72.5567 20.5282C72.5567 18.9653 73.1834 17.6532 74.4368 16.5919C75.6903 15.5306 77.5116 15 79.901 15C82.4666 15 84.3761 15.6078 85.6295 16.8234C86.8829 18.0391 87.5096 19.5827 87.5096 21.4544V21.8017H84.3957V21.4834C84.3957 20.2484 84.0529 19.3415 83.3675 18.7627C82.7016 18.1645 81.5167 17.8654 79.8128 17.8654C78.3832 17.8654 77.3452 18.068 76.6989 18.4732C76.0526 18.8784 75.7294 19.5152 75.7294 20.3835C75.7294 21.2518 75.9644 21.8693 76.4345 22.2359C76.9045 22.6025 77.8348 22.9305 79.2253 23.22L82.5743 23.9146C86.1191 24.6286 87.8915 26.4616 87.8915 29.4139C87.8915 31.0347 87.2746 32.3661 86.0408 33.4081C84.8265 34.4501 83.0247 34.9711 80.6354 34.9711Z" fill="#242424"/>
<path d="M96.107 35C93.8744 35 92.1215 34.3247 90.8485 32.974C89.5951 31.604 88.9684 29.7805 88.9684 27.5036C88.9684 25.2267 89.6049 23.4129 90.8779 22.0622C92.1705 20.6922 93.9527 20.0072 96.2245 20.0072C98.1438 20.0072 99.7008 20.5475 100.895 21.6281C102.11 22.6893 102.717 24.0786 102.717 25.7959V26.0564H99.5735V25.8828C99.5735 24.8215 99.2797 24.0497 98.6922 23.5673C98.1242 23.0656 97.2331 22.8148 96.0189 22.8148C94.6284 22.8148 93.6295 23.2007 93.0224 23.9725C92.4153 24.725 92.1117 25.9021 92.1117 27.5036C92.1117 29.1052 92.4153 30.2822 93.0224 31.0347C93.6295 31.7873 94.6284 32.1635 96.0189 32.1635C97.2331 32.1635 98.1242 31.9223 98.6922 31.4399C99.2797 30.9576 99.5735 30.1857 99.5735 29.1245V28.9508H102.717V29.2113C102.717 30.9286 102.1 32.3275 100.866 33.4081C99.6518 34.4694 98.0655 35 96.107 35Z" fill="#242424"/>
<path d="M108.628 34.9711C107.276 34.9711 106.16 34.6334 105.279 33.958C104.417 33.2827 103.986 32.3372 103.986 31.1216C103.986 28.864 105.612 27.5133 108.863 27.0695L113.974 26.3169V25.5355C113.974 24.4935 113.72 23.7699 113.21 23.3647C112.701 22.9595 111.859 22.7569 110.684 22.7569C109.529 22.7569 108.696 22.9595 108.187 23.3647C107.697 23.7699 107.453 24.4452 107.453 25.3907V25.8249H104.397V25.5355C104.397 23.9146 104.985 22.5929 106.16 21.5702C107.355 20.5282 108.921 20.0072 110.86 20.0072C112.838 20.0072 114.356 20.5475 115.414 21.6281C116.471 22.6893 117 24.1269 117 25.9407V34.6816H114.062V32.424H113.915C112.858 34.122 111.095 34.9711 108.628 34.9711ZM107.071 30.89C107.071 31.4496 107.266 31.8548 107.658 32.1056C108.069 32.3565 108.735 32.4819 109.656 32.4819C110.87 32.4819 111.888 32.2021 112.711 31.6425C113.553 31.0637 113.974 30.1085 113.974 28.7771V28.5166L109.333 29.2113C108.491 29.3271 107.903 29.5104 107.57 29.7612C107.237 29.9928 107.071 30.369 107.071 30.89Z" fill="#242424"/>
<path d="M122.623 34.6816H119.451V20.2967H122.359V22.9884H122.476C123.358 21.001 125.052 20.0072 127.559 20.0072C129.38 20.0072 130.751 20.5186 131.671 21.5412C132.592 22.5639 133.052 23.9339 133.052 25.6512V34.6816H129.879V26.3459C129.879 25.0338 129.625 24.0979 129.116 23.5384C128.606 22.9788 127.696 22.699 126.384 22.699C125.071 22.699 124.112 22.9788 123.505 23.5384C122.917 24.0979 122.623 25.0434 122.623 26.3748V34.6816Z" fill="#242424"/>
</g>
<defs>
<clipPath id="clip0_10644_13881">
<rect width="133.052" height="49.9986" fill="white"/>
</clipPath>
</defs>
</svg>
