<svg width="50" height="24" viewBox="0 0 50 24" fill="none" xmlns="http://www.w3.org/2000/svg">
    <path fill-rule="evenodd" clip-rule="evenodd"
          d="M12.0849 0.649171C18.046 0.649171 21.8897 4.92297 25.9609 10.7741C30.032 16.6252 33.2395 20.613 38.1002 20.613C41.4486 20.6208 44.5377 18.895 46.1683 16.1057H49.3671C47.5217 20.4937 43.0572 23.3645 38.1002 23.3508C32.139 23.3508 28.4512 19.261 24.2155 13.2158C19.9799 7.17073 16.9456 3.38634 12.0849 3.38634C7.05894 3.35329 2.95302 7.206 2.90577 11.9994C2.95235 16.793 7.05808 20.6463 12.0843 20.6136C16.0578 20.6136 18.8968 17.8841 21.5676 14.414L23.2832 16.8275C20.3694 20.4391 16.9993 23.3508 12.0849 23.3508C5.46424 23.3917 0.0581537 18.3137 0 11.9994C0.0588312 5.68553 5.46472 0.608284 12.0849 0.649171ZM28.9054 9.58612L27.2152 7.1886C30.0671 3.57063 33.3678 0.649377 38.1823 0.649377C41.5551 0.62447 44.7757 2.00521 47.0216 4.43898C49.2676 6.87274 50.3214 10.1239 49.9141 13.3622H35.9616V10.6276H47.0461C46.3219 6.44079 42.5714 3.37581 38.1823 3.38396C34.2953 3.38396 31.5177 6.11855 28.9054 9.58612Z"
          fill="#F5274E"/>
</svg>
