<?xml version="1.0" encoding="utf-8"?>
<!-- Generator: Adobe Illustrator 25.4.1, SVG Export Plug-In . SVG Version: 6.00 Build 0)  -->
<svg version="1.1" id="Layer_1" xmlns="http://www.w3.org/2000/svg" xmlns:xlink="http://www.w3.org/1999/xlink" x="0px" y="0px"
	 viewBox="0 0 736.8 720.4" style="enable-background:new 0 0 736.8 720.4;" xml:space="preserve">
<g transform="translate(0.000000,908.000000) scale(0.100000,-0.100000)">
	<g>
		<path d="M3262,8991.9c-27-12-40-39-22-50c6-4,33-1,59,8c58,19,487,30,504,13c6-6,9-13,6-15c-5-6-105-14-274-22
			c-160-7-303-28-321-46c-7-7-14-35-16-63l-3-50l88-1c48-1,91-5,94-8c4-3-33-6-81-6s-95-4-104-9s-71-18-137-29
			c-173-30-394-85-522-131l-110-39l-49,49c-39,39-55,49-82,49c-40,0-222-94-432-223c-128-78-200-112-200-94c0,22,401,256,533,312
			c44,18,67,34,67,45c0,21-20,40-42,40c-17,0-188-85-318-159c-30-17-73-40-95-51s-92-55-155-98c-135-91-135-90-96-230
			c15-50,26-95,26-100c0-6-39-43-87-83c-105-87-324-307-401-401c-31-40-62-68-73-68c-21,0-111,23-152,39c-65,25-71,21-167-125
			c-50-75-90-138-90-139s-23-42-51-90c-58-102-169-330-169-349c0-13,104-116,152-151l28-20l-36-110c-49-153-94-356-117-530l-13-90
			l-64-17c-36-10-101-26-144-36c-122-28-116-10-116-357c0-277,10-438,30-476c11-19,114-53,229-75c104-20,141-33,141-50
			c0-8,13-58,29-112c65-214,111-360,130-416c12-33,21-62,21-66c0-9-91-103-187-194c-49-45-73-75-73-90c0-62,295-567,393-673
			c31-35,40-33,289,43c85,26,111,20,154-33c58-72,271-282,340-336l62-48l-25-82c-14-45-36-111-49-147c-30-83-31-120-2-147
			c68-62,375-246,546-327c129-61,171-65,213-18c37,41,37,58-1,65c-16,4-107,44-202,91c-324,158-444,262-198,170c52-19,118-44,147-54
			c29-10,72-30,96-44c30-18,58-26,92-26c41,0,46-2,35-15c-10-12-9-16,6-20c11-3,40-17,67-31l48-24l38,39c54,55,76,59,179,28
			c298-90,480-132,632-147c164-16,540-21,699-8c112,8,148,8,163-1c11-7,21-11,21-9c19,39,28,43,118,59c101,18,270,63,413,110
			c49,16,95,29,103,29s41-27,72-60c32-33,61-60,66-60s20,11,34,24c15,12,46,31,71,40s63,30,85,45c22,16,51,31,65,35s61,22,105,41
			c44,18,116,49,161,67c89,38,249,141,271,175c21,32,9,91-21,104c-20,9-32,4-88-38c-70-53-177-118-183-111c-7,7,94,111,160,166
			c33,27,103,92,155,143c52,52,127,122,167,157c80,70,108,109,118,164c15,80-10,72-132-43c-179-169-382-325-409-315
			c-18,7-9,15,121,110c166,122,463,440,636,681c303,420,505,944,566,1464c23,197,22,545-1,651c-10,41-28,139-41,218
			c-64,380-199,735-413,1082c-150,244-344,469-648,751c-151,140-549,380-794,479c-30,12-68,28-85,35c-75,33-281,99-394,126
			c-268,66-406,87-729,112c-89,6-163,16-165,22c-3,15,152,18,263,6c187-21,294-24,312-9c17,12,17,17-2,87c-10,40-22,77-27,81
			c-4,4-53,15-108,25C3848,8996.9,3302,9008.9,3262,8991.9z M3162,8689.9c9-26-11-93-32-110c-12-10-35-18-50-18s-47-7-70-15
			s-55-15-71-15s-29-5-29-11c0-13,22-11,210,17c168,25,535,30,720,10c309-34,435-60,668-140c163-56,196-68,247-91
			c155-69,228-104,277-132c56-33,88-41,88-24c0,5-15,18-32,30c-45,27-112,97-101,104c5,3,22-1,38-9c28-14,55-13,55,3
			c0,4-26,24-57,43c-107,66-27,43,149-43c165-81,340-187,438-266c25-21,58-44,74-52c45-22,332-311,424-427c184-231,337-490,445-752
			c48-117,132-388,157-507c57-277,64-573,14-632c-14-17-30-56-38-97c-8-38-17-76-20-84s-10-73-16-145c-39-473-238-960-547-1342
			c-101-125-323-337-457-437c-259-193-552-357-826-463c-63-25-153-60-200-78c-170-66-244-79-612-110c-72-6-77-8-75-28
			c2-22,0-22-188-25c-104-2-209,0-233,3c-86,13-29,20,140,18c95-1,194,1,221,4c102,11,37,18-181,19c-459,2-845,88-1242,277
			c-315,150-598,368-820,632c-204,242-386,587-479,907c-71,246-95,455-88,748c6,235,26,370,86,589c149,534,508,1028,966,1325
			c178,115,439,239,650,307c107,34,115,35,115,10c0-29-65-81-344-276c-197-138-348-277-481-445c-67-86-90-130-67-130
			c5,0,35,28,67,63c192,205,299,309,398,385c77,60,223,162,231,162c3,0,31,17,63,37c72,46,219,116,399,188c76,32,164,68,194,82
			c170,79,177,81,343,128c179,50,537,76,770,56c107-10,218,6,246,34c14,14,14,18,1,43c-42,74-412,241-645,290c-300,64-809,64-1117,2
			c-480-97-930-321-1303-650c-275-242-521-588-640-900c-20-52-40-104-45-115c-11-23-42-112-70-200c-50-162-76-216-141-289
			c-33-38-66-47-76-20c-9,24,16,160,49,264c57,180,160,412,222,504c15,21,42,69,62,107c19,39,72,125,118,192c94,139,206,321,206,337
			c0,15,11,12,26-7c12-17,15-16,43,12c54,51,105,133,93,148c-14,16-4,32,25,41c13,4,42,23,65,43c73,61,139,108,253,178
			c61,37,157,97,215,132c93,58,205,115,357,183c29,13,50,27,47,32c-8,13-67,9-114-7c-53-19-80-19-80-2c0,16,137,78,225,103
			c33,9,62,18,64,20c3,3-19,29-48,58l-53,54l57,21c120,45,285,90,440,120c88,16,169,32,180,34C3151,8702.9,3158,8701.9,3162,8689.9z
			 M4263,8660.9c162-32,307-74,487-139c47-16,86-30,88-30c1,0-4-13-13-30c-28-53-45-55-158-17c-85,29-371,103-469,122
			c-15,3-31,13-36,23c-15,27-22,92-11,92C4157,8681.9,4207,8672.9,4263,8660.9z M1840,8106.9c-80-80-149-144-155-142
			c-26,9-13,40,37,88c97,94,230,196,258,199C1983,8251.9,1920,8186.9,1840,8106.9z M1614,8013.9c8-16,22-34,30-41c9-8,16-21,16-30
			c0-22-121-148-183-189c-46-31-87-83-87-111c0-10,11-5,30,14c16,16,33,25,37,21c5-4-7-21-26-38c-23-20-36-26-41-18
			c-14,22-58-2-125-71c-41-41-76-69-89-69c-26,0-106,30-106,40c0,17,199,236,297,328c120,111,214,191,225,192
			C1596,8041.9,1606,8028.9,1614,8013.9z M639,6636.9c17-20,31-40,31-45c0-4-13-46-29-92c-50-142-92-293-111-400
			c-19-104-32-128-72-128c-24,0-23,24,6,201c35,206,114,499,135,499C604,6671.9,622,6655.9,639,6636.9z"/>
	</g>
	<g>
		<path d="M5093,7814.9c-4-10,3-24,21-40c52-45,89-17,37,29C5115,7835.9,5102,7838.9,5093,7814.9z"/>
	</g>
	<g>
		<path d="M4957,8614.9c-16-16-4-32,31-43c20-7,128-57,240-111c111-54,205-99,210-99c4,1-20,26-53,56c-45,42-97,74-212,130
			C5035,8614.9,4975,8633.9,4957,8614.9z"/>
	</g>
	<g>
		<path d="M7173,5476.9c0-127,2-173,7-140c10,63,10,203,0,275C7175,5648.9,7173,5605.9,7173,5476.9z"/>
	</g>
	<g>
		<path d="M6661,4115.9c-40-75-106-191-148-257c-72-117-262-379-283-392c-17-11-11-25,11-25c11,0,29-5,40-11c34-18,56-1,102,79
			c24,42,77,133,117,202c131,226,250,466,250,505c0,19-4,35-9,35S6700,4190.9,6661,4115.9z"/>
	</g>
	<g>
		<path d="M6643,3834.9c-7-16-25-50-41-78c-16-27-49-88-75-135c-25-47-64-109-86-139c-45-60-52-91-21-91c13,0,31,19,55,55
			c19,31,35,57,35,60s15,28,33,57c64,101,137,247,137,272C6680,3869.9,6657,3868.9,6643,3834.9z"/>
	</g>
	<g>
		<path d="M6643,3624.9c-21-48-123-207-144-225l-21-18l27-12c18-8,31-9,43-2c18,12,152,230,152,248c0,15-20,36-35,36
			C6659,3651.9,6649,3639.9,6643,3624.9z"/>
	</g>
	<g>
		<path d="M5669,2717.9c-154-113-346-221-631-355c-38-18-68-35-68-39c0-11,84-80,102-84c50-11,608,288,681,365c31,33,34,59,12,111
			C5746,2760.9,5728,2760.9,5669,2717.9z"/>
	</g>
	<g>
		<path d="M3170,2287.9c0-42,20-56,82-56c24,0,79-7,123-14c130-23,325-29,495-15c85,6,176,12,202,13c25,1,48,3,51,6c2,3,7,22,10,42
			l5,36l-34-14c-61-26-254-37-519-30c-273,6-345,15-387,46l-28,21V2287.9z"/>
	</g>
	<g>
		<path d="M3200,2105.9c0-32,46-111,68-118c32-10,206-27,317-31s376,9,441,21c43,8,76,54,72,99c-3,27-6,30-38,28
			c-198-8-632-1-735,12c-66,8-121,15-122,15C3201,2131.9,3200,2119.9,3200,2105.9z"/>
	</g>
</g>
</svg>
