<?xml version="1.0" encoding="UTF-8" standalone="no" ?>
<!DOCTYPE svg PUBLIC "-//W3C//DTD SVG 1.1//EN" "http://www.w3.org/Graphics/SVG/1.1/DTD/svg11.dtd">
<svg xmlns="http://www.w3.org/2000/svg" version="1.1" width="131"
     height="58.2222" viewBox="0 0 131 58.2222" xml:space="preserve">
<desc>Created with Fabric.js 5.3.0</desc>
    <defs>
</defs>
    <g transform="matrix(1 0 0 1 19.23925 27.99985)" id="iUE7uOUoK99GAHN6JRPko" clip-path="url(#CLIPPATH_30)">
<clipPath id="CLIPPATH_30">
	<rect transform="matrix(1 0 0 1 43.50025 0.000003)" id="clip0_5418_53294" x="-62.7395" y="-27.15415" rx="0" ry="0"
          width="125.479" height="54.3083"/>
</clipPath>
        <path style="stroke: none; stroke-width: 1; stroke-dasharray: none; stroke-linecap: butt; stroke-dashoffset: 0; stroke-linejoin: miter; stroke-miterlimit: 4; fill: rgb(245,39,78); fill-rule: evenodd; opacity: 1;"
              vector-effect="non-scaling-stroke" transform=" translate(-19.23925, -27.99985)"
              d="M 19.355 5.8457 L 14.1635 8.84297 L 28.699 17.0346 L 28.8185 11.2471 L 19.355 5.8457 Z M 0.13916 23.035 L 0.13916 17.0405 L 9.65939 11.5455 L 14.67 14.5427 L 0.13916 23.035 Z M 38.3252 33.1731 L 38.3252 39.1677 L 28.9157 44.6627 L 23.9633 41.6654 L 38.3252 33.1731 Z M 24.1082 47.2255 L 18.8777 50.154 L 9.48622 44.6282 L 9.68212 38.8427 L 24.1082 47.2255 Z M 0.0131681 38.8837 L 5.22107 41.8905 L 5.1096 25.0451 L 0 27.8817 L 0.0131681 38.8837 Z M 33.2574 14.0813 L 38.4653 17.0881 L 38.4785 28.0901 L 33.3689 30.9267 L 33.2574 14.0813 Z M 19.2323 17.7984 L 11.0376 22.6138 L 19.1479 27.2603 L 27.2581 22.6138 L 19.2323 17.7984 Z M 20.5408 29.7102 L 28.7355 24.8948 L 28.7355 34.4412 L 20.5408 39.0877 L 20.5408 29.7102 Z M 9.48598 24.985 L 9.63613 34.4887 L 17.7951 39.1113 L 17.7919 29.6909 L 9.48598 24.985 Z"
              stroke-linecap="round"/>
</g>
    <g transform="matrix(1 0 0 1 59.7674 30.3647)" id="1zh1I5UzNkQhDn4lg8swG" clip-path="url(#CLIPPATH_31)">
<clipPath id="CLIPPATH_31">
	<rect transform="matrix(1 0 0 1 7.9721 -2.364847)" id="clip0_5418_53294" x="-62.7395" y="-27.15415" rx="0" ry="0"
          width="125.479" height="54.3083"/>
</clipPath>
        <path style="stroke: none; stroke-width: 1; stroke-dasharray: none; stroke-linecap: butt; stroke-dashoffset: 0; stroke-linejoin: miter; stroke-miterlimit: 4; fill: rgb(36,36,36); fill-rule: nonzero; opacity: 1;"
              vector-effect="non-scaling-stroke" transform=" translate(-54.7674, -30.3647)"
              d="M 48.2229 37.4725 C 46.7717 37.4725 45.6181 37.1609 44.7623 36.5376 C 43.9064 35.9144 43.4785 34.9978 43.4785 33.788 C 43.4785 32.6881 43.8785 31.8174 44.6786 31.1758 C 45.4786 30.5342 46.6228 30.131 48.1113 29.966 L 52.9952 29.3611 L 52.9952 28.6737 C 52.9952 27.5738 52.7347 26.8314 52.2138 26.4465 C 51.7114 26.0615 50.9207 25.869 49.8416 25.869 C 48.7811 25.869 48.0089 26.0615 47.5252 26.4465 C 47.0415 26.8314 46.7996 27.528 46.7996 28.5362 L 46.7996 28.7836 L 43.8692 28.7836 L 43.8692 28.5087 C 43.8692 26.9689 44.4274 25.7132 45.5437 24.7417 C 46.6601 23.7518 48.1299 23.2569 49.9532 23.2569 C 52.1301 23.2569 53.7301 23.9351 54.7534 25.2916 C 55.9814 23.9351 57.6559 23.2569 59.7769 23.2569 C 61.6561 23.2569 63.1724 23.7885 64.326 24.8517 C 65.4795 25.9149 66.0563 27.3722 66.0563 29.2236 C 66.0563 29.9752 66.0097 30.5984 65.9167 31.0933 L 55.8419 31.0933 C 55.8791 32.3948 56.1954 33.348 56.7907 33.953 C 57.4047 34.5396 58.4001 34.8329 59.7769 34.8329 C 61.9165 34.8329 62.9864 34.1638 62.9864 32.8256 L 62.9864 32.6056 L 65.9446 32.6056 L 65.9446 32.8531 C 65.9446 34.2463 65.3772 35.3644 64.2422 36.2077 C 63.1073 37.0509 61.6096 37.4725 59.749 37.4725 C 56.9954 37.4725 55.0697 36.4918 53.972 34.5304 C 53.451 35.4836 52.6789 36.2168 51.6556 36.7301 C 50.6323 37.225 49.4881 37.4725 48.2229 37.4725 Z M 59.6374 25.759 C 58.3722 25.759 57.4512 26.0432 56.8745 26.6114 C 56.2977 27.1614 55.9628 27.9863 55.8698 29.0861 L 63.1817 29.0861 C 63.2375 27.9496 62.9584 27.1155 62.3445 26.5839 C 61.7491 26.034 60.8467 25.759 59.6374 25.759 Z M 46.4089 33.5405 C 46.4089 34.1088 46.5949 34.5212 46.967 34.7779 C 47.3578 35.0162 47.9903 35.1353 48.8648 35.1353 C 50.0556 35.1353 51.0509 34.8512 51.851 34.2829 C 52.651 33.6963 53.051 32.734 53.051 31.3958 L 48.5578 31.9457 C 47.7578 32.0374 47.1996 32.2024 46.8833 32.4407 C 46.567 32.679 46.4089 33.0456 46.4089 33.5405 Z"
              stroke-linecap="round"/>
</g>
    <g transform="matrix(1 0 0 1 80.26405 27.98625)" id="9U5JtJtIBvJCPozIEHmtP" clip-path="url(#CLIPPATH_32)">
<clipPath id="CLIPPATH_32">
	<rect transform="matrix(1 0 0 1 -12.52455 0.013603)" id="clip0_5418_53294" x="-62.7395" y="-27.15415" rx="0" ry="0"
          width="125.479" height="54.3083"/>
</clipPath>
        <path style="stroke: none; stroke-width: 1; stroke-dasharray: none; stroke-linecap: butt; stroke-dashoffset: 0; stroke-linejoin: miter; stroke-miterlimit: 4; fill: rgb(36,36,36); fill-rule: nonzero; opacity: 1;"
              vector-effect="non-scaling-stroke" transform=" translate(-75.26405, -27.98625)"
              d="M 75.6826 37.4725 C 73.0779 37.4725 71.1336 36.9409 69.8498 35.8777 C 68.5846 34.7962 67.9521 33.3297 67.9521 31.4783 L 67.9521 31.0109 L 70.9103 31.0109 L 70.9103 31.3133 C 70.9103 32.5232 71.2545 33.403 71.9429 33.953 C 72.6313 34.4846 73.9151 34.7504 75.7943 34.7504 C 77.1525 34.7504 78.1199 34.5579 78.6967 34.1729 C 79.2735 33.788 79.5619 33.1647 79.5619 32.3032 C 79.5619 31.4416 79.3386 30.8184 78.8921 30.4334 C 78.4641 30.0485 77.5432 29.7185 76.1292 29.4436 L 72.9476 28.8111 C 69.6545 28.1879 68.0079 26.5014 68.0079 23.7518 C 68.0079 22.267 68.6032 21.0205 69.794 20.0123 C 70.9847 19.0041 72.7151 18.5 74.9849 18.5 C 77.4222 18.5 79.2363 19.0774 80.427 20.2323 C 81.6178 21.3871 82.2132 22.8536 82.2132 24.6317 L 82.2132 24.9616 L 79.2549 24.9616 L 79.2549 24.6592 C 79.2549 23.486 78.9293 22.6245 78.2781 22.0745 C 77.6455 21.5063 76.5199 21.2221 74.9012 21.2221 C 73.543 21.2221 72.5569 21.4146 71.9429 21.7996 C 71.3289 22.1845 71.022 22.7894 71.022 23.6143 C 71.022 24.4392 71.2452 25.0258 71.6918 25.3741 C 72.1383 25.7224 73.022 26.034 74.343 26.309 L 77.5246 26.9689 C 80.8922 27.6471 82.576 29.3886 82.576 32.1932 C 82.576 33.733 81.9899 34.9978 80.8177 35.9877 C 79.6642 36.9776 77.9525 37.4725 75.6826 37.4725 Z"
              stroke-linecap="round"/>
</g>
    <g transform="matrix(1 0 0 1 95.1295 30.37845)" id="oLR2_TeVEtZSQbSfiyzsH" clip-path="url(#CLIPPATH_33)">
<clipPath id="CLIPPATH_33">
	<rect transform="matrix(1 0 0 1 -27.39 -2.378597)" id="clip0_5418_53294" x="-62.7395" y="-27.15415" rx="0" ry="0"
          width="125.479" height="54.3083"/>
</clipPath>
        <path style="stroke: none; stroke-width: 1; stroke-dasharray: none; stroke-linecap: butt; stroke-dashoffset: 0; stroke-linejoin: miter; stroke-miterlimit: 4; fill: rgb(36,36,36); fill-rule: nonzero; opacity: 1;"
              vector-effect="non-scaling-stroke" transform=" translate(-90.1295, -30.37845)"
              d="M 90.3807 37.5 C 88.2596 37.5 86.5944 36.8584 85.3851 35.5753 C 84.1943 34.2738 83.599 32.5415 83.599 30.3784 C 83.599 28.2154 84.2036 26.4923 85.413 25.2091 C 86.641 23.9076 88.3341 23.2569 90.4923 23.2569 C 92.3156 23.2569 93.7948 23.7701 94.9297 24.7967 C 96.0832 25.8049 96.66 27.1247 96.66 28.7562 L 96.66 29.0036 L 93.6738 29.0036 L 93.6738 28.8386 C 93.6738 27.8304 93.3948 27.0972 92.8366 26.6389 C 92.297 26.1623 91.4505 25.924 90.2969 25.924 C 88.976 25.924 88.0271 26.2906 87.4503 27.0239 C 86.8735 27.7388 86.5851 28.857 86.5851 30.3784 C 86.5851 31.8999 86.8735 33.0181 87.4503 33.733 C 88.0271 34.4479 88.976 34.8054 90.2969 34.8054 C 91.4505 34.8054 92.297 34.5762 92.8366 34.1179 C 93.3948 33.6597 93.6738 32.9264 93.6738 31.9182 L 93.6738 31.7533 L 96.66 31.7533 L 96.66 32.0007 C 96.66 33.6322 96.0739 34.9612 94.9018 35.9877 C 93.7483 36.9959 92.2412 37.5 90.3807 37.5 Z"
              stroke-linecap="round"/>
</g>
    <g transform="matrix(1 0 0 1 109.04735 30.3647)" id="s5Jw5DKj6fvjOHYBYbBJY" clip-path="url(#CLIPPATH_34)">
<clipPath id="CLIPPATH_34">
	<rect transform="matrix(1 0 0 1 -41.30785 -2.364847)" id="clip0_5418_53294" x="-62.7395" y="-27.15415" rx="0" ry="0"
          width="125.479" height="54.3083"/>
</clipPath>
        <path style="stroke: none; stroke-width: 1; stroke-dasharray: none; stroke-linecap: butt; stroke-dashoffset: 0; stroke-linejoin: miter; stroke-miterlimit: 4; fill: rgb(36,36,36); fill-rule: nonzero; opacity: 1;"
              vector-effect="non-scaling-stroke" transform=" translate(-104.04735, -30.3647)"
              d="M 102.275 37.4725 C 100.991 37.4725 99.9309 37.1517 99.0937 36.5101 C 98.2751 35.8685 97.8657 34.9703 97.8657 33.8155 C 97.8657 31.6708 99.41 30.3876 102.498 29.966 L 107.355 29.2511 L 107.355 28.5087 C 107.355 27.5188 107.113 26.8314 106.629 26.4465 C 106.145 26.0615 105.345 25.869 104.229 25.869 C 103.131 25.869 102.34 26.0615 101.857 26.4465 C 101.391 26.8314 101.159 27.473 101.159 28.3712 L 101.159 28.7836 L 98.2564 28.7836 L 98.2564 28.5087 C 98.2564 26.9689 98.8146 25.7132 99.9309 24.7417 C 101.066 23.7518 102.554 23.2569 104.396 23.2569 C 106.275 23.2569 107.717 23.7701 108.722 24.7967 C 109.727 25.8049 110.229 27.1705 110.229 28.8936 L 110.229 37.1975 L 107.438 37.1975 L 107.438 35.0528 L 107.299 35.0528 C 106.294 36.6659 104.62 37.4725 102.275 37.4725 Z M 100.796 33.5955 C 100.796 34.1271 100.982 34.5121 101.354 34.7504 C 101.745 34.9887 102.378 35.1078 103.252 35.1078 C 104.406 35.1078 105.373 34.842 106.154 34.3104 C 106.955 33.7605 107.355 32.8531 107.355 31.5883 L 107.355 31.3408 L 102.945 32.0007 C 102.145 32.1107 101.587 32.2849 101.271 32.5232 C 100.954 32.7431 100.796 33.1006 100.796 33.5955 Z"
              stroke-linecap="round"/>
</g>
    <g transform="matrix(1 0 0 1 124.018 30.2272)" id="7zcriub0iBxsVzTTq-ECw" clip-path="url(#CLIPPATH_35)">
<clipPath id="CLIPPATH_35">
	<rect transform="matrix(1 0 0 1 -56.2785 -2.227347)" id="clip0_5418_53294" x="-62.7395" y="-27.15415" rx="0" ry="0"
          width="125.479" height="54.3083"/>
</clipPath>
        <path style="stroke: none; stroke-width: 1; stroke-dasharray: none; stroke-linecap: butt; stroke-dashoffset: 0; stroke-linejoin: miter; stroke-miterlimit: 4; fill: rgb(36,36,36); fill-rule: nonzero; opacity: 1;"
              vector-effect="non-scaling-stroke" transform=" translate(-119.018, -30.2272)"
              d="M 115.571 37.1975 L 112.557 37.1975 L 112.557 23.5318 L 115.32 23.5318 L 115.32 26.089 L 115.432 26.089 C 116.269 24.2009 117.878 23.2569 120.26 23.2569 C 121.99 23.2569 123.292 23.7426 124.167 24.7142 C 125.041 25.6857 125.479 26.9872 125.479 28.6187 L 125.479 37.1975 L 122.464 37.1975 L 122.464 29.2786 C 122.464 28.0321 122.223 27.143 121.739 26.6114 C 121.255 26.0798 120.39 25.814 119.143 25.814 C 117.897 25.814 116.985 26.0798 116.408 26.6114 C 115.85 27.143 115.571 28.0412 115.571 29.3061 L 115.571 37.1975 Z"
              stroke-linecap="round"/>
</g>
</svg>