<svg width="150" height="24" viewBox="0 0 150 24" fill="none" xmlns="http://www.w3.org/2000/svg">
<g clip-path="url(#clip0_4821_53996)">
<path d="M54.7025 19.2046C56.9677 19.2046 59.0506 18.2933 60.066 16.4187C61.0293 18.1631 62.7998 19.2046 65.4555 19.2046C68.9183 19.2046 71.2355 17.4862 71.2355 14.8305V14.5962H68.4756V14.8045C68.4756 15.9761 67.6425 16.7051 65.4815 16.7051C62.8518 16.7051 61.8885 15.5595 61.8104 13.1642H71.2094C71.2876 12.7476 71.3396 12.0707 71.3396 11.3937C71.3396 7.82679 68.9183 5.74389 65.4815 5.74389C63.5027 5.74389 61.8885 6.44687 60.795 7.67057C59.9097 6.47291 58.3997 5.74389 56.3168 5.74389C52.88 5.74389 50.6409 7.82679 50.6409 10.7168V10.9772H53.3747V10.7428C53.3747 8.76409 54.338 8.21733 56.2126 8.21733C58.0872 8.21733 59.1547 8.68598 59.1547 10.873V11.5239L54.5984 12.0967C51.8906 12.4092 50.2764 13.6068 50.2764 15.7157C50.2764 18.059 52.0989 19.2046 54.7025 19.2046ZM65.3513 8.11319C67.5644 8.11319 68.762 9.07652 68.6579 11.2636H61.8364C61.9926 9.28481 62.9039 8.11319 65.3513 8.11319ZM53.0102 15.4814C53.0102 14.5441 53.5309 14.1536 55.0149 13.9713L59.2068 13.4506C59.2068 16.2104 57.228 16.9915 55.3013 16.9915C53.6871 16.9915 53.0102 16.5489 53.0102 15.4814Z" fill="#242424"/>
<path d="M78.8683 18.9442C79.7536 18.9442 80.6388 18.8401 81.1856 18.7099V16.4187H79.5974C77.8529 16.4187 77.2801 16.1844 77.2801 14.8305V8.34751H81.1856V6.00426H77.2801V2.80181H75.1191L74.5203 6.00426H72.3072V8.34751H74.4682V14.9607C74.4682 17.8767 75.9783 18.9442 78.8683 18.9442Z" fill="#242424"/>
<path d="M88.3856 19.2046C91.8744 19.2046 94.1916 17.4862 94.1916 14.8305V14.5962H91.4058V14.8045C91.4058 15.9761 90.5726 16.7051 88.4116 16.7051C85.7039 16.7051 84.8447 15.5075 84.7405 13.1382H94.1396C94.2177 12.7476 94.2958 12.0446 94.2958 11.3677C94.2958 7.82679 91.8484 5.74389 88.3595 5.74389C84.5062 5.74389 82.1109 8.45165 82.1109 12.4612C82.1109 16.4968 84.1157 19.2046 88.3856 19.2046ZM88.3075 8.11319C90.5205 8.11319 91.7182 9.05049 91.6141 11.2636H84.7666C84.9228 9.25878 85.8601 8.11319 88.3075 8.11319Z" fill="#242424"/>
<path d="M99.3515 18.9442V10.5085C99.3515 8.79013 99.9764 8.13922 101.669 8.13922C103.309 8.13922 103.804 8.76409 103.804 10.4825V11.0032H106.616V10.144C106.616 7.72264 105.574 5.74389 102.866 5.74389C100.966 5.74389 99.7681 6.78534 99.2473 7.983H99.1172V5.92615H96.5396V18.9442H99.3515Z" fill="#242424"/>
<path d="M111.175 18.9442V11.4719C111.175 9.05049 112.216 8.16526 114.507 8.16526C116.876 8.16526 117.605 9.1286 117.605 11.4458V18.9442H120.417V10.8209C120.417 7.87886 118.907 5.74389 115.549 5.74389C113.023 5.74389 111.643 7.0457 111.044 8.42562H110.94V6.00426H108.363V18.9442H111.175Z" fill="#242424"/>
<path d="M125.739 4.36398V1.5H122.927L122.953 4.36398H125.739ZM125.765 18.9442V5.92615H122.953V18.9442H125.765Z" fill="#242424"/>
<path d="M133.661 18.9442C134.546 18.9442 135.432 18.8401 135.978 18.7099V16.4187H134.39C132.646 16.4187 132.073 16.1844 132.073 14.8305V8.34751H135.978V6.00426H132.073V2.80181H129.912L129.313 6.00426H127.1V8.34751H129.261V14.9607C129.261 17.8767 130.771 18.9442 133.661 18.9442Z" fill="#242424"/>
<path d="M139.638 23.3704C141.668 23.3704 142.918 22.7715 143.881 20.4804L150 6.00426H146.902L144.532 12.279L143.465 15.0909H143.257L142.085 12.279L139.481 6.00426H136.383L141.877 18.6058L141.382 19.6993C140.965 20.6626 140.575 20.8449 139.455 20.8449H137.685V23.1361C138.127 23.2662 138.935 23.3704 139.638 23.3704Z" fill="#242424"/>
<path fill-rule="evenodd" clip-rule="evenodd" d="M24.6491 10.7873L23.2077 8.74276C25.6397 5.65746 28.4544 3.1663 32.5601 3.1663C35.4363 3.14506 38.1828 4.32251 40.0981 6.39796C42.0133 8.47341 42.912 11.2459 42.5646 14.0074H30.6664V11.6755H40.1189C39.5013 8.10505 36.303 5.49132 32.5601 5.49827C29.2454 5.49827 26.8767 7.83025 24.6491 10.7873ZM10.3056 3.16626C15.3891 3.16626 18.6669 6.81083 22.1387 11.8005C25.6104 16.7902 28.3457 20.1909 32.4907 20.1909C35.3461 20.1975 37.9804 18.7258 39.371 16.3472H42.0988C40.5252 20.0891 36.7179 22.5373 32.4907 22.5255C27.4072 22.5255 24.2623 19.0379 20.6503 13.8828C17.0383 8.72765 14.4507 5.50043 10.3056 5.50043C6.01966 5.47225 2.51825 8.75773 2.47795 12.8454C2.51768 16.9333 6.01893 20.2193 10.3051 20.1914C13.6936 20.1914 16.1146 17.8637 18.3922 14.9045L19.8553 16.9626C17.3705 20.0425 14.4966 22.5255 10.3056 22.5255C4.65974 22.5604 0.0495918 18.2301 0 12.8454C0.0501695 7.46112 4.66015 3.13139 10.3056 3.16626Z" fill="#F5274E"/>
</g>
<defs>
<clipPath id="clip0_4821_53996">
<rect width="150" height="24" fill="white"/>
</clipPath>
</defs>
</svg>
