<svg width="126" height="56" viewBox="0 0 126 56" fill="none" xmlns="http://www.w3.org/2000/svg">
<g clip-path="url(#clip0_5418_53294)">
<path fill-rule="evenodd" clip-rule="evenodd" d="M19.355 5.8457L14.1635 8.84297L28.699 17.0346L28.8185 11.2471L19.355 5.8457ZM0.13916 23.035V17.0405L9.65939 11.5455L14.67 14.5427L0.13916 23.035ZM38.3252 33.1731V39.1677L28.9157 44.6627L23.9633 41.6654L38.3252 33.1731ZM24.1082 47.2255L18.8777 50.154L9.48622 44.6282L9.68212 38.8427L24.1082 47.2255ZM0.0131681 38.8837L5.22107 41.8905L5.1096 25.0451L0 27.8817L0.0131681 38.8837ZM33.2574 14.0813L38.4653 17.0881L38.4785 28.0901L33.3689 30.9267L33.2574 14.0813ZM19.2323 17.7984L11.0376 22.6138L19.1479 27.2603L27.2581 22.6138L19.2323 17.7984ZM20.5408 29.7102L28.7355 24.8948V34.4412L20.5408 39.0877L20.5408 29.7102ZM9.48598 24.985L9.63613 34.4887L17.7951 39.1113L17.7919 29.6909L9.48598 24.985Z" fill="#F5274E"/>
<path d="M48.2229 37.4725C46.7717 37.4725 45.6181 37.1609 44.7623 36.5376C43.9064 35.9144 43.4785 34.9978 43.4785 33.788C43.4785 32.6881 43.8785 31.8174 44.6786 31.1758C45.4786 30.5342 46.6228 30.131 48.1113 29.966L52.9952 29.3611V28.6737C52.9952 27.5738 52.7347 26.8314 52.2138 26.4465C51.7114 26.0615 50.9207 25.869 49.8416 25.869C48.7811 25.869 48.0089 26.0615 47.5252 26.4465C47.0415 26.8314 46.7996 27.528 46.7996 28.5362V28.7836H43.8692V28.5087C43.8692 26.9689 44.4274 25.7132 45.5437 24.7417C46.6601 23.7518 48.1299 23.2569 49.9532 23.2569C52.1301 23.2569 53.7301 23.9351 54.7534 25.2916C55.9814 23.9351 57.6559 23.2569 59.7769 23.2569C61.6561 23.2569 63.1724 23.7885 64.326 24.8517C65.4795 25.9149 66.0563 27.3722 66.0563 29.2236C66.0563 29.9752 66.0097 30.5984 65.9167 31.0933H55.8419C55.8791 32.3948 56.1954 33.348 56.7907 33.953C57.4047 34.5396 58.4001 34.8329 59.7769 34.8329C61.9165 34.8329 62.9864 34.1638 62.9864 32.8256V32.6056H65.9446V32.8531C65.9446 34.2463 65.3772 35.3644 64.2422 36.2077C63.1073 37.0509 61.6096 37.4725 59.749 37.4725C56.9954 37.4725 55.0697 36.4918 53.972 34.5304C53.451 35.4836 52.6789 36.2168 51.6556 36.7301C50.6323 37.225 49.4881 37.4725 48.2229 37.4725ZM59.6374 25.759C58.3722 25.759 57.4512 26.0432 56.8745 26.6114C56.2977 27.1614 55.9628 27.9863 55.8698 29.0861H63.1817C63.2375 27.9496 62.9584 27.1155 62.3445 26.5839C61.7491 26.034 60.8467 25.759 59.6374 25.759ZM46.4089 33.5405C46.4089 34.1088 46.5949 34.5212 46.967 34.7779C47.3578 35.0162 47.9903 35.1353 48.8648 35.1353C50.0556 35.1353 51.0509 34.8512 51.851 34.2829C52.651 33.6963 53.051 32.734 53.051 31.3958L48.5578 31.9457C47.7578 32.0374 47.1996 32.2024 46.8833 32.4407C46.567 32.679 46.4089 33.0456 46.4089 33.5405Z" fill="#242424"/>
<path d="M75.6826 37.4725C73.0779 37.4725 71.1336 36.9409 69.8498 35.8777C68.5846 34.7962 67.9521 33.3297 67.9521 31.4783V31.0109H70.9103V31.3133C70.9103 32.5232 71.2545 33.403 71.9429 33.953C72.6313 34.4846 73.9151 34.7504 75.7943 34.7504C77.1525 34.7504 78.1199 34.5579 78.6967 34.1729C79.2735 33.788 79.5619 33.1647 79.5619 32.3032C79.5619 31.4416 79.3386 30.8184 78.8921 30.4334C78.4641 30.0485 77.5432 29.7185 76.1292 29.4436L72.9476 28.8111C69.6545 28.1879 68.0079 26.5014 68.0079 23.7518C68.0079 22.267 68.6032 21.0205 69.794 20.0123C70.9847 19.0041 72.7151 18.5 74.9849 18.5C77.4222 18.5 79.2363 19.0774 80.427 20.2323C81.6178 21.3871 82.2132 22.8536 82.2132 24.6317V24.9616H79.2549V24.6592C79.2549 23.486 78.9293 22.6245 78.2781 22.0745C77.6455 21.5063 76.5199 21.2221 74.9012 21.2221C73.543 21.2221 72.5569 21.4146 71.9429 21.7996C71.3289 22.1845 71.022 22.7894 71.022 23.6143C71.022 24.4392 71.2452 25.0258 71.6918 25.3741C72.1383 25.7224 73.022 26.034 74.343 26.309L77.5246 26.9689C80.8922 27.6471 82.576 29.3886 82.576 32.1932C82.576 33.733 81.9899 34.9978 80.8177 35.9877C79.6642 36.9776 77.9525 37.4725 75.6826 37.4725Z" fill="#242424"/>
<path d="M90.3807 37.5C88.2596 37.5 86.5944 36.8584 85.3851 35.5753C84.1943 34.2738 83.599 32.5415 83.599 30.3784C83.599 28.2154 84.2036 26.4923 85.413 25.2091C86.641 23.9076 88.3341 23.2569 90.4923 23.2569C92.3156 23.2569 93.7948 23.7701 94.9297 24.7967C96.0832 25.8049 96.66 27.1247 96.66 28.7562V29.0036H93.6738V28.8386C93.6738 27.8304 93.3948 27.0972 92.8366 26.6389C92.297 26.1623 91.4505 25.924 90.2969 25.924C88.976 25.924 88.0271 26.2906 87.4503 27.0239C86.8735 27.7388 86.5851 28.857 86.5851 30.3784C86.5851 31.8999 86.8735 33.0181 87.4503 33.733C88.0271 34.4479 88.976 34.8054 90.2969 34.8054C91.4505 34.8054 92.297 34.5762 92.8366 34.1179C93.3948 33.6597 93.6738 32.9264 93.6738 31.9182V31.7533H96.66V32.0007C96.66 33.6322 96.0739 34.9612 94.9018 35.9877C93.7483 36.9959 92.2412 37.5 90.3807 37.5Z" fill="#242424"/>
<path d="M102.275 37.4725C100.991 37.4725 99.9309 37.1517 99.0937 36.5101C98.2751 35.8685 97.8657 34.9703 97.8657 33.8155C97.8657 31.6708 99.41 30.3876 102.498 29.966L107.355 29.2511V28.5087C107.355 27.5188 107.113 26.8314 106.629 26.4465C106.145 26.0615 105.345 25.869 104.229 25.869C103.131 25.869 102.34 26.0615 101.857 26.4465C101.391 26.8314 101.159 27.473 101.159 28.3712V28.7836H98.2564V28.5087C98.2564 26.9689 98.8146 25.7132 99.9309 24.7417C101.066 23.7518 102.554 23.2569 104.396 23.2569C106.275 23.2569 107.717 23.7701 108.722 24.7967C109.727 25.8049 110.229 27.1705 110.229 28.8936V37.1975H107.438V35.0528H107.299C106.294 36.6659 104.62 37.4725 102.275 37.4725ZM100.796 33.5955C100.796 34.1271 100.982 34.5121 101.354 34.7504C101.745 34.9887 102.378 35.1078 103.252 35.1078C104.406 35.1078 105.373 34.842 106.154 34.3104C106.955 33.7605 107.355 32.8531 107.355 31.5883V31.3408L102.945 32.0007C102.145 32.1107 101.587 32.2849 101.271 32.5232C100.954 32.7431 100.796 33.1006 100.796 33.5955Z" fill="#242424"/>
<path d="M115.571 37.1975H112.557V23.5318H115.32V26.089H115.432C116.269 24.2009 117.878 23.2569 120.26 23.2569C121.99 23.2569 123.292 23.7426 124.167 24.7142C125.041 25.6857 125.479 26.9872 125.479 28.6187V37.1975H122.464V29.2786C122.464 28.0321 122.223 27.143 121.739 26.6114C121.255 26.0798 120.39 25.814 119.143 25.814C117.897 25.814 116.985 26.0798 116.408 26.6114C115.85 27.143 115.571 28.0412 115.571 29.3061V37.1975Z" fill="#242424"/>
</g>
<defs>
<clipPath id="clip0_5418_53294">
<rect width="125.479" height="54.3083" fill="white" transform="translate(0 0.845703)"/>
</clipPath>
</defs>
</svg>
